<svg width="2078" height="2080" xmlns="http://www.w3.org/2000/svg" xmlns:xlink="http://www.w3.org/1999/xlink" overflow="hidden"><defs><clipPath id="clip0"><rect x="745" y="-240" width="2078" height="2080"/></clipPath></defs><g clip-path="url(#clip0)" transform="translate(-745 240)"><path d="M1784 1840 884 1320.5 1784 801Z" fill="#291F27" fill-rule="evenodd"/><path d="M1784 801 2684 1320.5 1784 1840Z" fill="#373238" fill-rule="evenodd"/><path d="M884 280.666 1784-239 1784 800.333 884 1320 884 280.667 884 280.666Z" fill="#96A199" fill-rule="evenodd"/><path d="M519.666 900 0 0 1039.33 0 1559 900 519.667 900 519.666 900Z" fill="#CCBEBD" fill-rule="evenodd" transform="matrix(-6.12323e-17 -1 -1 6.12323e-17 2684 1320)"/><path d="M1784 800 2234 540 2234 1060 1784 1320 1784 800 1784 800Z" fill="#B5756C" fill-rule="evenodd"/><path d="M260 450 0 0 520 0 780 450 260 450 260 450Z" fill="#784F4B" fill-rule="evenodd" transform="matrix(1.83697e-16 1 1 -1.83697e-16 1334 540)"/><path d="M1784 280 2234 540 1784 800 1334 540Z" fill="#24231F" fill-rule="evenodd"/></g></svg>